<svg version="1.1" id="Layer_1" xmlns="http://www.w3.org/2000/svg" xmlns:xlink="http://www.w3.org/1999/xlink" x="0px" y="0px"
	 width="100%" viewBox="0 0 100 100" enable-background="new 0 0 100 100" xml:space="preserve">
<path fill="#FFFFFF" opacity="1.000000" stroke="none" 
	d="
M55.000000,101.000000 
	C36.666668,101.000000 18.833340,101.000000 1.000007,101.000000 
	C1.000005,67.666679 1.000005,34.333351 1.000002,1.000021 
	C34.333317,1.000014 67.666634,1.000014 100.999969,1.000007 
	C100.999977,34.333313 100.999977,67.666626 100.999985,100.999969 
	C85.833336,101.000000 70.666664,101.000000 55.000000,101.000000 
M76.030212,79.240829 
	C76.173187,80.659645 76.316154,82.078461 76.452721,83.433685 
	C80.950951,81.166512 81.965462,71.583412 77.961777,61.149544 
	C73.347122,49.123417 60.081806,42.299953 46.766769,45.207855 
	C39.782120,46.733250 33.754639,50.754150 30.103550,57.050999 
	C26.657143,62.994843 23.660288,69.344116 26.129015,78.039452 
	C18.581013,64.007385 19.298883,43.268978 32.317425,30.613800 
	C53.158859,10.354073 75.246185,12.032879 96.898338,31.216103 
	C89.358864,12.026032 62.368294,-2.743456 39.013050,5.721846 
	C16.215698,13.984938 0.357409,38.970680 7.985576,65.237968 
	C12.680524,81.404831 35.696823,100.841049 47.891911,98.305687 
	C41.126778,91.753448 39.013317,83.677872 41.777645,76.630943 
	C44.887951,68.702034 52.709415,64.694069 59.392387,65.168907 
	C67.566711,65.749710 73.514740,70.214897 76.030212,79.240829 
z"/>
<path fill="#000000" opacity="1.000000" stroke="none" 
	d="
M76.014923,78.849426 
	C73.514740,70.214897 67.566711,65.749710 59.392387,65.168907 
	C52.709415,64.694069 44.887951,68.702034 41.777645,76.630943 
	C39.013317,83.677872 41.126778,91.753448 47.891911,98.305687 
	C35.696823,100.841049 12.680524,81.404831 7.985576,65.237968 
	C0.357409,38.970680 16.215698,13.984938 39.013050,5.721846 
	C62.368294,-2.743456 89.358864,12.026032 96.898338,31.216103 
	C75.246185,12.032879 53.158859,10.354073 32.317425,30.613800 
	C19.298883,43.268978 18.581013,64.007385 26.129015,78.039452 
	C23.660288,69.344116 26.657143,62.994843 30.103550,57.050999 
	C33.754639,50.754150 39.782120,46.733250 46.766769,45.207855 
	C60.081806,42.299953 73.347122,49.123417 77.961777,61.149544 
	C81.965462,71.583412 80.950951,81.166512 76.452721,83.433685 
	C76.316154,82.078461 76.173187,80.659645 76.014923,78.849426 
z"/>
</svg>